<svg height="40" width="40" xmlns="http://www.w3.org/2000/svg" viewBox="0 0 153.665 153.665">
<g>
	<path style="fill:#CDCDCB;" d="M110.292,51.751c-2.93-2.928-7.678-2.928-10.607,0c-2.929,2.93-2.929,7.678,0,10.607
		c7.981,7.98,7.981,20.967,0,28.947c-2.929,2.93-2.929,7.678,0,10.607c1.465,1.464,3.385,2.196,5.304,2.196s3.839-0.732,5.304-2.196
		C124.121,88.083,124.121,65.581,110.292,51.751z"/>
    <path style="fill:#CDCDCB;" d="M132.274,29.768c-2.93-2.928-7.678-2.928-10.607,0c-2.929,2.93-2.929,7.678,0,10.607
		c20.103,20.102,20.103,52.811,0,72.912c-2.929,2.93-2.929,7.678,0,10.607c1.465,1.464,3.385,2.196,5.304,2.196
		s3.839-0.732,5.304-2.196C158.224,97.944,158.224,55.72,132.274,29.768z"/>
    <path style="fill:#CDCDCB;" d="M86.89,0.684c-2.661-1.223-5.795-0.783-8.018,1.127L31.214,42.765H9.428c-4.143,0-7.5,3.357-7.5,7.5
		v53.134c0,4.143,3.357,7.5,7.5,7.5h21.786l47.658,40.954c1.387,1.192,3.128,1.812,4.889,1.812c1.061,0,2.128-0.225,3.129-0.685
		c2.663-1.223,4.37-3.885,4.37-6.815V7.5C91.26,4.569,89.553,1.907,86.89,0.684z M16.928,57.765h9.566v38.134h-9.566V57.765z
		 M76.26,129.831L41.495,99.956V53.709L76.26,23.834V129.831z"/>
</g>
</svg>
